# xmcd
#
# Track frame offsets:
#	150
#	15083
#	31717
#	49485
#	66982
#	81455
#	94300
#	107283
#	123310
#	138363
#	153309
#	167895
#	185077
#	199314
#	216623
#	232788
#	247186
#	263892
#	284465
#
# Disc length: 4010 seconds
#
# Revision: 2
# Processed by: cddbd v1.5.2PL0 Copyright (c) Steve Scherf et al.
# Submitted via: audiograbber 1.82.02
#
DISCID=160fa813
DTITLE=Various Artist - Country Radio - May 2012
DYEAR=2012
DGENRE=Country
TTITLE0=Glen Templeton - Sing That Song Again
TTITLE1=Chris Young - Neon
TTITLE2=Tim Culpepper - Ghost
TTITLE3=Justin Moore - 'Til My Last Day
TTITLE4=Jerrod Niemann - Shinin' On Me @
TTITLE5=Jaida Dreyer - Guy's Girl
TTITLE6=Brian Milson - Country Life
TTITLE7=Band Perry - Postcard From Paris
TTITLE8=Cledus T. Judd - Double D Cups (PO Clean Edit)
TTITLE9=Toby Keith - Beers Ago
TTITLE10=Edens Edge - Too Good To Be True
TTITLE11=Pat Green - All Just To Get To You
TTITLE12=Chelsea Bain - Rockin' That Trailer
TTITLE13=Frizzell and Friends - Say Hello To Heaven
TTITLE14=Miss Willie Brown - You're All That Matters To Me
TTITLE15=Jessie James - When You Say My Name
TTITLE16=Martina McBride (Ft. Pat Monahan) - Marry Me
TTITLE17=Mike and Ruthy - My New York City
TTITLE18=Rachel Holder - In Your Arms
EXTD=
EXTT0=
EXTT1=
EXTT2=
EXTT3=
EXTT4=
EXTT5=
EXTT6=
EXTT7=
EXTT8=
EXTT9=
EXTT10=
EXTT11=
EXTT12=
EXTT13=
EXTT14=
EXTT15=
EXTT16=
EXTT17=
EXTT18=
PLAYORDER=
